<?xml version="1.0" encoding="UTF-8" standalone="no"?>
<!DOCTYPE svg PUBLIC "-//W3C//DTD SVG 1.1//EN" "http://www.w3.org/Graphics/SVG/1.1/DTD/svg11.dtd">
<svg width="100%" height="100%" viewBox="0 0 1024 1024" version="1.1" xmlns="http://www.w3.org/2000/svg"
    xml:space="preserve" style="fill-rule:evenodd;clip-rule:evenodd;stroke-linejoin:round;stroke-miterlimit:2;">
    <g id="AWS" transform="matrix(9.09919,0,0,9.09919,57.0288,0.215952)">
        <path d="M20.575,28.156C16.325,28.156 12.012,29.812 11.294,30.719C11.106,31.094 10.669,34.125 11.7,34.125C12.044,34.125 12.2,34.188 13.2,33.719C16.95,32.25 19.325,32.281 19.669,32.281C23.887,31.875 26.325,34.75 25.95,38.469L25.95,40.656C22.387,39.812 20.356,39.781 19.356,39.781C14.169,39.469 9.375,42.206 9.375,48.219C9.375,54.813 15.259,56.219 17.541,56.125C20.947,56.156 24.197,54.625 26.353,51.969C28.072,55.813 29.166,55.563 29.197,55.563C29.509,55.563 29.759,55.438 30.009,55.281L31.791,54.031C32.103,53.844 32.353,53.531 32.384,53.156C32.353,52.25 30.728,50.844 30.853,47.688L30.853,37.938C31.05,35.253 30.149,32.601 28.356,30.594C26.187,28.786 23.388,27.909 20.575,28.156ZM81.116,28.156C74.866,28.156 71.272,32.063 71.366,36.031C71.366,41.469 76.866,43.188 77.491,43.375C82.772,45.031 83.491,45.094 84.959,46.344C86.209,47.625 86.053,50.125 84.209,51.219C83.678,51.531 81.397,52.906 76.241,51.844C74.522,51.5 73.616,51.094 72.209,50.5C71.834,50.375 70.959,50.156 70.959,51.312L70.959,52.844C70.959,53.562 71.397,54.219 72.053,54.531C75.334,56.187 79.272,56.25 80.116,56.25C80.241,56.25 87.428,56.253 89.834,51.406C90.328,50.406 91.616,46.75 89.209,43.625C87.209,41.281 85.491,41.031 80.366,39.469C79.928,39.344 76.147,38.375 76.178,35.719C75.991,32.312 80.616,32.125 81.584,32.187C85.491,32.125 87.428,33.594 88.491,33.687C88.959,33.687 89.178,33.406 89.178,32.781L89.178,31.344C89.197,30.998 89.098,30.656 88.897,30.375C87.647,28.75 82.866,28.156 81.116,28.156ZM33.678,28.938C33.334,29 33.084,29.344 33.147,29.688C33.209,30.094 33.272,30.5 33.428,30.906L40.428,54C40.584,54.75 41.084,55.563 42.178,55.438L44.741,55.438C46.303,55.594 46.522,54.094 46.553,53.938L51.147,34.688L55.803,53.969C55.834,54.125 56.053,55.625 57.584,55.469L60.178,55.469C61.303,55.594 61.834,54.781 61.991,54.031C69.866,28.688 69.334,30.406 69.397,30.156C69.522,28.844 68.772,28.938 68.647,28.969L65.866,28.969C64.459,28.813 64.178,30.094 64.116,30.406L58.928,50.438L54.241,30.406C54.022,28.875 52.772,28.938 52.459,28.969L50.053,28.969C48.678,28.844 48.334,29.938 48.241,30.406L43.584,50.156L38.584,30.406C38.459,29.781 38.053,28.813 36.834,28.938L33.678,28.938ZM20.384,43.406C22.634,43.438 24.578,43.781 25.922,44.094C25.922,45.656 25.978,46.531 25.634,47.938C25.197,49.438 23.263,52.156 18.7,52.219C16.075,52.344 14.356,50.281 14.513,47.938C14.356,44.188 18.231,43.25 20.388,43.406L20.384,43.406ZM90.753,62.506C87.838,62.547 84.394,63.2 81.781,65.034C80.975,65.594 81.116,66.369 82.013,66.266C84.95,65.913 91.488,65.119 92.656,66.613C93.828,68.106 91.363,74.269 90.272,77.025C89.934,77.847 90.647,78.188 91.4,77.563C96.288,73.469 97.556,64.888 96.556,63.656C96.056,63.038 93.669,62.466 90.753,62.506ZM3.803,65.631C3.122,65.725 2.828,66.588 3.541,67.272C15.781,78.753 31.956,84.375 49.916,84.375C62.725,84.375 77.594,80.197 87.859,72.322C89.556,71.009 88.109,69.05 86.372,69.822C74.863,74.903 62.359,77.35 50.981,77.35C34.119,77.35 17.794,73.828 4.591,65.831C4.359,65.677 4.081,65.606 3.803,65.631Z" style="fill-rule:nonzero;"/>
    </g>
</svg>
