<?xml version="1.0" encoding="UTF-8" standalone="no"?>
<!DOCTYPE svg PUBLIC "-//W3C//DTD SVG 1.1//EN" "http://www.w3.org/Graphics/SVG/1.1/DTD/svg11.dtd">
<svg width="100%" height="100%" viewBox="0 0 1024 1024" version="1.1" xmlns="http://www.w3.org/2000/svg"
    xml:space="preserve" style="fill-rule:evenodd;clip-rule:evenodd;stroke-linejoin:round;stroke-miterlimit:2;">
    <g id="Binance" transform="matrix(6.73722,0,0,6.73776,85.5,85.5)">
        <path d="M38.73,53.2L63.32,28.62L87.92,53.22L102.22,38.91L63.32,0L24.42,38.9L38.73,53.2Z" style="fill:rgb(243,186,47);fill-rule:nonzero;"/>
        <path d="M0,63.31L14.3,49L28.61,63.31L14.3,77.61L0,63.31Z" style="fill:rgb(243,186,47);fill-rule:nonzero;"/>
        <path d="M38.73,73.41L63.32,98L87.92,73.4L102.23,87.69L63.33,126.6L24.42,87.72L38.73,73.41Z" style="fill:rgb(243,186,47);fill-rule:nonzero;"/>
        <path d="M98,63.31L112.3,49L126.61,63.3L112.3,77.62L98,63.31Z" style="fill:rgb(243,186,47);fill-rule:nonzero;"/>
        <path d="M77.83,63.3L63.32,48.78L52.59,59.51L51.35,60.74L48.81,63.28L63.32,77.78L77.83,63.31L77.83,63.3Z" style="fill:rgb(243,186,47);fill-rule:nonzero;"/>
    </g>
</svg>
