<?xml version="1.0" encoding="UTF-8" standalone="no"?>
<!DOCTYPE svg PUBLIC "-//W3C//DTD SVG 1.1//EN" "http://www.w3.org/Graphics/SVG/1.1/DTD/svg11.dtd">
<svg width="100%" height="100%" viewBox="0 0 1024 1024" version="1.1" xmlns="http://www.w3.org/2000/svg"
    xml:space="preserve" style="fill-rule:evenodd;clip-rule:evenodd;stroke-linejoin:round;stroke-miterlimit:2;">
    <g id="Bybit" transform="matrix(9.80464,0,0,9.80464,85.5,340.419)">
        <rect x="62.008" y="3" width="4.494" height="22.357" style="fill:rgb(247,166,0);fill-rule:nonzero;"/>
        <path d="M9.634,31.998L0,31.998L0,9.641L9.247,9.641C13.741,9.641 16.359,12.09 16.359,15.921C16.359,18.401 14.677,20.004 13.513,20.538C14.903,21.165 16.681,22.578 16.681,25.562C16.681,29.737 13.741,31.998 9.634,31.998ZM8.891,13.536L4.494,13.536L4.494,18.685L8.891,18.685C10.798,18.685 11.865,17.649 11.865,16.11C11.865,14.572 10.798,13.536 8.891,13.536ZM9.182,22.61L4.494,22.61L4.494,28.106L9.182,28.106C11.219,28.106 12.187,26.85 12.187,25.342C12.187,23.835 11.217,22.61 9.182,22.61Z" style="fill-rule:nonzero;"/>
        <path d="M30.388,22.829L30.388,31.998L25.926,31.998L25.926,22.829L19.007,9.641L23.889,9.641L28.189,18.653L32.424,9.641L37.305,9.641L30.388,22.829Z" style="fill-rule:nonzero;"/>
        <path d="M50.046,31.998L40.412,31.998L40.412,9.641L49.658,9.641C54.152,9.641 56.771,12.09 56.771,15.921C56.771,18.401 55.089,20.004 53.925,20.538C55.314,21.165 57.093,22.578 57.093,25.562C57.093,29.737 54.152,31.998 50.046,31.998ZM49.303,13.536L44.906,13.536L44.906,18.685L49.303,18.685C51.21,18.685 52.277,17.649 52.277,16.11C52.277,14.572 51.21,13.536 49.303,13.536ZM49.593,22.61L44.906,22.61L44.906,28.106L49.593,28.106C51.631,28.106 52.599,26.85 52.599,25.342C52.599,23.835 51.631,22.61 49.593,22.61Z" style="fill-rule:nonzero;"/>
        <path d="M80.986,13.536L80.986,32L76.492,32L76.492,13.536L70.479,13.536L70.479,9.641L87,9.641L87,13.536L80.986,13.536Z" style="fill-rule:nonzero;"/>
    </g>
</svg>
