<?xml version="1.0" encoding="UTF-8" standalone="no"?>
<!DOCTYPE svg PUBLIC "-//W3C//DTD SVG 1.1//EN" "http://www.w3.org/Graphics/SVG/1.1/DTD/svg11.dtd">
<svg width="100%" height="100%" viewBox="0 0 1024 1024" version="1.1" xmlns="http://www.w3.org/2000/svg"
    xml:space="preserve" style="fill-rule:evenodd;clip-rule:evenodd;stroke-linejoin:round;stroke-miterlimit:2;">
    <g id="Crowdin" transform="matrix(35.5417,0,0,35.5417,85.5,85.5)">
        <path d="M17,0L6.92,0C4.84,0 3.11,0.69 1.9,1.9C0.69,3.11 0,4.84 0,6.92L0,17C0,19.12 0.69,20.88 1.91,22.09C3.13,23.3 4.88,24 7,24L17,24C19.12,24 20.87,23.31 22.09,22.09C23.31,20.87 24,19.12 24,17L24,7C24,4.87 23.31,3.12 22.09,1.91C20.87,0.7 19.12,0 17,0Z" style="fill:rgb(38,50,56);fill-rule:nonzero;"/>
        <g>
            <path d="M14.85,14.78C14.84,14.69 14.77,14.35 14.53,14.35L13.81,14.35C13.81,14.35 13.51,14.35 13.52,14.63C13.53,15.19 13.85,15.67 14.24,15.99C14.57,16.26 14.97,16.4 15.42,16.4C15.82,16.39 15.87,16.1 15.68,16.01C15.36,15.86 14.94,15.53 14.85,14.76L14.85,14.78ZM17,7.06C14.98,7.06 12.97,7.55 11.65,8.34C10.95,8.76 10.41,9.28 10.03,9.87C9.73,10.35 9.53,10.87 9.45,11.43C9.42,11.62 9.41,12.19 10.02,12.35C10.4,12.45 10.99,12.49 11.38,12.54C12.02,12.61 12.2,11.9 12.25,11.78C12.76,10.39 13.5,9.45 14.58,8.83C15.67,8.2 17.13,7.91 19.19,7.91C19.46,7.91 20.09,7.94 20.09,7.63C20.09,7.07 17.37,7.07 16.99,7.07L17,7.07L17,7.06ZM14.2,17.64C13.47,17.47 12.25,16.68 11.97,14.67C11.92,14.29 11.7,14.11 11.39,14.04C10.96,13.95 10.22,13.91 9.98,13.89C9.63,13.85 9.38,14.06 9.42,14.66C9.49,15.57 9.86,16.29 10.48,16.99C11.21,17.82 12.17,18.3 13.19,18.28C14.32,18.25 14.4,18.05 14.41,17.91C14.41,17.76 14.34,17.67 14.21,17.64L14.2,17.64ZM11.12,19.31C10,19.31 7.62,17.5 7.62,14.67C7.62,14.17 7.32,13.67 6.69,13.49C6.18,13.34 5.47,13.11 5.01,13.09C3.91,13.02 3.97,13.93 4,14.41C4.11,16.42 4.99,18.12 6.45,19.08C7.06,19.48 7.77,19.75 8.63,19.91C8.83,19.95 9.54,20.1 10.26,20.07C11.37,20.02 11.49,19.7 11.49,19.57C11.49,19.4 11.37,19.32 11.12,19.32L11.12,19.31Z" style="fill:white;fill-rule:nonzero;"/>
            <path d="M20.38,5.11C17.69,4.33 14.8,4.11 12.04,4.4C9.11,4.71 5.47,5.88 4.33,9.37C4.21,9.73 4,11.05 5.26,11.37C5.67,11.47 6.08,11.66 6.51,11.74C7.75,11.97 8.01,10.8 8.08,10.57C8.15,10.35 8.23,10.13 8.33,9.91C8.72,9.07 9.3,8.36 9.97,7.81C11.35,6.66 13.06,6.12 14.72,5.85C15.69,5.7 16.66,5.63 17.63,5.65C20.57,5.72 20.89,5.94 21,5.62C21.11,5.3 20.58,5.17 20.39,5.11L20.38,5.11ZM17.88,9.69C14.63,9.69 13.78,11.32 13.54,12.41C13.43,12.94 13.75,12.98 14.04,13.03C14.46,13.1 14.79,13.04 14.94,12.64C15.4,11.4 16.02,10.19 18,10.19C18.2,10.19 18.38,10.07 18.38,9.94C18.38,9.81 18.25,9.69 17.88,9.69Z" style="fill:white;fill-rule:nonzero;"/>
        </g>
    </g>
</svg>
