<?xml version="1.0" encoding="UTF-8" standalone="no"?>
<!DOCTYPE svg PUBLIC "-//W3C//DTD SVG 1.1//EN" "http://www.w3.org/Graphics/SVG/1.1/DTD/svg11.dtd">
<svg width="100%" height="100%" viewBox="0 0 1024 1024" version="1.1" xmlns="http://www.w3.org/2000/svg"
    xml:space="preserve" style="fill-rule:evenodd;clip-rule:evenodd;stroke-linejoin:round;stroke-miterlimit:2;">
    <g id="DigitalOcean" transform="matrix(2.41568,0,0,2.41568,-397.243,-223.706)">
        <path d="M543.084,248.273C526.776,195.421 484.802,153.375 432.305,136.758C311.979,98.921 201,189.014 201,304.532L268.822,304.532C268.822,232.059 340.216,176.001 415.982,203.629C444.03,213.839 466.498,236.461 476.643,264.492C504.275,340.698 448.522,412.505 376.624,412.64L376.624,344.778L308.806,344.778L308.806,413.047L376.417,413.047L376.417,481.11C491.173,481.114 580.675,369.398 543.084,248.273Z" style="fill:rgb(0,105,255);"/>
        <g transform="matrix(1,0,0,1,0,2)">
            <path d="M256.889,465.295L308.8,465.295L308.8,413.043L256.908,413.043L256.908,369.204L213.349,369.204L213.349,413.047L256.889,413.047L256.889,465.295Z" style="fill:rgb(0,105,255);"/>
        </g>
    </g>
</svg>
