<?xml version="1.0" encoding="UTF-8" standalone="no"?>
<!DOCTYPE svg PUBLIC "-//W3C//DTD SVG 1.1//EN" "http://www.w3.org/Graphics/SVG/1.1/DTD/svg11.dtd">
<svg width="100%" height="100%" viewBox="0 0 1024 1024" version="1.1" xmlns="http://www.w3.org/2000/svg"
    xml:space="preserve" style="fill-rule:evenodd;clip-rule:evenodd;stroke-linejoin:round;stroke-miterlimit:2;">
    <g id="Discord">
        <g transform="matrix(53.3125,0,0,53.3125,85.5,85.5)">
            <path d="M16,8C16,12.419 12.419,16 8,16C3.581,16 0,12.419 0,8C0,3.581 3.581,0 8,0C12.419,0 16,3.581 16,8Z" style="fill:rgb(88,101,242);fill-rule:nonzero;"/>
        </g>
        <g transform="matrix(10.4264,0,0,10.4264,209.9,282.619)">
            <path d="M37.194,0C36.627,1.007 36.117,2.049 35.654,3.114C31.255,2.454 26.775,2.454 22.365,3.114C21.914,2.049 21.393,1.007 20.825,0C16.693,0.706 12.664,1.945 8.844,3.693C1.274,14.91 -0.775,25.837 0.243,36.615C4.677,39.891 9.643,42.391 14.933,43.988C16.126,42.391 17.179,40.689 18.082,38.918C16.369,38.282 14.713,37.483 13.127,36.557C13.544,36.256 13.949,35.943 14.343,35.642C23.638,40.018 34.404,40.018 43.711,35.642C44.105,35.966 44.51,36.279 44.926,36.557C43.341,37.494 41.685,38.282 39.96,38.93C40.863,40.701 41.917,42.403 43.109,44C48.399,42.403 53.365,39.914 57.799,36.638C59.003,24.136 55.738,13.301 49.175,3.704C45.366,1.956 41.338,0.718 37.205,0.023L37.194,0ZM19.378,29.982C16.519,29.982 14.146,27.389 14.146,24.182C14.146,20.976 16.427,18.371 19.367,18.371C22.307,18.371 24.645,20.987 24.599,24.182C24.553,27.377 22.296,29.982 19.378,29.982ZM38.664,29.982C35.793,29.982 33.443,27.389 33.443,24.182C33.443,20.976 35.724,18.371 38.664,18.371C41.604,18.371 43.931,20.987 43.885,24.182C43.838,27.377 41.581,29.982 38.664,29.982Z" style="fill:white;fill-rule:nonzero;"/>
        </g>
    </g>
</svg>
