<?xml version="1.0" encoding="UTF-8" standalone="no"?>
<!DOCTYPE svg PUBLIC "-//W3C//DTD SVG 1.1//EN" "http://www.w3.org/Graphics/SVG/1.1/DTD/svg11.dtd">
<svg width="100%" height="100%" viewBox="0 0 1024 1024" version="1.1" xmlns="http://www.w3.org/2000/svg"
    xml:space="preserve" style="fill-rule:evenodd;clip-rule:evenodd;stroke-linejoin:round;stroke-miterlimit:2;">
    <g id="Facebook" transform="matrix(17.7708,0,0,17.7708,-8586.67,-8586.67)">
        <g transform="matrix(1,0,0,1,488,488)">
            <path d="M48,24C48,10.745 37.255,0 24,0C10.745,0 0,10.745 0,24C0,35.979 8.776,45.908 20.25,47.708L20.25,30.938L14.156,30.938L14.156,24L20.25,24L20.25,18.712C20.25,12.697 23.833,9.375 29.315,9.375C31.941,9.375 34.688,9.844 34.688,9.844L34.688,15.75L31.66,15.75C28.679,15.75 27.749,17.6 27.749,19.498L27.749,24L34.405,24L33.341,30.938L27.75,30.938L27.75,47.708C39.224,45.908 48,35.978 48,24" style="fill:rgb(24,119,242);fill-rule:nonzero;"/>
        </g>
        <g transform="matrix(1,0,0,1,488,488)">
            <path d="M33.342,30.937L34.406,24L27.75,24L27.75,19.498C27.75,17.6 28.68,15.75 31.661,15.75L34.688,15.75L34.688,9.844C34.688,9.844 31.941,9.375 29.315,9.375C23.833,9.375 20.25,12.697 20.25,18.712L20.25,24L14.156,24L14.156,30.937L20.25,30.937L20.25,47.708C22.735,48.098 25.265,48.098 27.75,47.708L27.75,30.938L33.342,30.938" style="fill:white;fill-rule:nonzero;"/>
        </g>
    </g>
</svg>
