<?xml version="1.0" encoding="UTF-8" standalone="no"?>
<!DOCTYPE svg PUBLIC "-//W3C//DTD SVG 1.1//EN" "http://www.w3.org/Graphics/SVG/1.1/DTD/svg11.dtd">
<svg width="100%" height="100%" viewBox="0 0 1024 1024" version="1.1" xmlns="http://www.w3.org/2000/svg"
    xml:space="preserve" style="fill-rule:evenodd;clip-rule:evenodd;stroke-linejoin:round;stroke-miterlimit:2;">
    <g transform="matrix(29.0795,0,0,29.0795,46.7273,57.2499)">
        <path d="M16,1.333C7.897,1.333 1.333,7.897 1.333,16C1.333,22.49 5.532,27.972 11.362,29.915C12.095,30.043 12.37,29.603 12.37,29.218C12.37,28.87 12.352,27.715 12.352,26.487C8.667,27.165 7.713,25.588 7.42,24.763C7.255,24.342 6.54,23.04 5.917,22.692C5.403,22.417 4.67,21.738 5.898,21.72C7.053,21.702 7.878,22.783 8.153,23.223C9.473,25.442 11.582,24.818 12.425,24.433C12.553,23.48 12.938,22.838 13.36,22.472C10.097,22.105 6.687,20.84 6.687,15.23C6.687,13.635 7.255,12.315 8.19,11.288C8.043,10.922 7.53,9.418 8.337,7.402C8.337,7.402 9.565,7.017 12.37,8.905C13.543,8.575 14.79,8.41 16.037,8.41C17.283,8.41 18.53,8.575 19.703,8.905C22.508,6.998 23.737,7.402 23.737,7.402C24.543,9.418 24.03,10.922 23.883,11.288C24.818,12.315 25.387,13.617 25.387,15.23C25.387,20.858 21.958,22.105 18.695,22.472C19.227,22.93 19.685,23.81 19.685,25.185C19.685,27.147 19.667,28.723 19.667,29.218C19.667,29.603 19.942,30.062 20.675,29.915C26.468,27.972 30.667,22.472 30.667,16C30.667,7.897 24.103,1.333 16,1.333Z" style="fill-rule:nonzero;"/>
    </g>
</svg>
