<?xml version="1.0" encoding="UTF-8" standalone="no"?>
<!DOCTYPE svg PUBLIC "-//W3C//DTD SVG 1.1//EN" "http://www.w3.org/Graphics/SVG/1.1/DTD/svg11.dtd">
<svg width="100%" height="100%" viewBox="0 0 1024 1024" version="1.1" xmlns="http://www.w3.org/2000/svg"
    xml:space="preserve" style="fill-rule:evenodd;clip-rule:evenodd;stroke-linejoin:round;stroke-miterlimit:2;">
    <g id="GitLab" transform="matrix(34.1515,0,0,34.1515,67.924,101.193)">
        <path d="M25.074,9.522L25.039,9.433L21.639,0.563C21.571,0.388 21.448,0.24 21.29,0.14C21.131,0.039 20.944,-0.01 20.757,0.002C20.569,0.011 20.388,0.079 20.242,0.198C20.095,0.316 19.99,0.477 19.942,0.659L17.651,7.68L8.362,7.68L6.062,0.659C6.013,0.479 5.908,0.318 5.761,0.201C5.614,0.084 5.434,0.016 5.247,0.006C5.059,-0.004 4.873,0.045 4.714,0.145C4.556,0.245 4.433,0.393 4.365,0.567L0.966,9.433L0.932,9.522C0.442,10.801 0.382,12.204 0.76,13.52C1.138,14.837 1.933,15.994 3.026,16.819L3.037,16.827L3.068,16.85L8.247,20.727L10.809,22.666L12.368,23.844C12.55,23.983 12.773,24.058 13.003,24.058C13.232,24.058 13.455,23.983 13.638,23.844L15.196,22.666L17.758,20.727L22.966,16.831L22.981,16.822C24.074,15.997 24.869,14.839 25.247,13.522C25.624,12.205 25.564,10.801 25.074,9.522Z" style="fill:rgb(226,67,41);fill-rule:nonzero;"/>
        <path d="M25.074,9.522L25.039,9.433C23.383,9.773 21.822,10.475 20.468,11.489L13.002,17.134L17.758,20.727L22.967,16.831L22.981,16.822C24.074,15.997 24.869,14.839 25.247,13.522C25.625,12.205 25.564,10.801 25.074,9.522Z" style="fill:rgb(252,109,38);fill-rule:nonzero;"/>
        <path d="M8.247,20.727L10.809,22.666L12.368,23.844C12.55,23.983 12.773,24.058 13.003,24.058C13.232,24.058 13.455,23.983 13.638,23.844L15.196,22.666L17.758,20.727L13.002,17.134L8.247,20.727Z" style="fill:rgb(252,163,38);fill-rule:nonzero;"/>
        <path d="M5.535,11.489C4.182,10.475 2.622,9.773 0.966,9.433L0.932,9.522C0.442,10.801 0.382,12.204 0.76,13.52C1.138,14.837 1.933,15.994 3.026,16.819L3.037,16.827L3.068,16.85L8.247,20.727L13.002,17.134L5.535,11.489Z" style="fill:rgb(252,109,38);fill-rule:nonzero;"/>
    </g>
</svg>
