<?xml version="1.0" encoding="UTF-8" standalone="no"?>
<!DOCTYPE svg PUBLIC "-//W3C//DTD SVG 1.1//EN" "http://www.w3.org/Graphics/SVG/1.1/DTD/svg11.dtd">
<svg width="100%" height="100%" viewBox="0 0 1024 1024" version="1.1" xmlns="http://www.w3.org/2000/svg"
    xml:space="preserve" style="fill-rule:evenodd;clip-rule:evenodd;stroke-linejoin:round;stroke-miterlimit:2;">
    <g id="Instagram" transform="matrix(17.7706,0,0,17.7706,85.5054,85.5087)">
        <g transform="matrix(0.18142,0,0,0.18142,-13.029,-3.292)">
            <path d="M204.15,18.143C148.92,18.143 132.767,18.2 129.627,18.461C118.293,19.403 111.24,21.188 103.556,25.015C97.635,27.955 92.964,31.365 88.356,36.145C79.962,44.86 74.875,55.582 73.033,68.328C72.138,74.516 71.877,75.778 71.824,107.384C71.804,117.919 71.824,131.785 71.824,150.382C71.824,205.583 71.885,221.724 72.15,224.858C73.066,235.89 74.795,242.831 78.458,250.423C85.458,264.956 98.827,275.866 114.577,279.937C120.031,281.342 126.054,282.115 133.786,282.482C137.062,282.624 170.454,282.726 203.867,282.726C237.28,282.726 270.692,282.686 273.887,282.523C282.841,282.101 288.04,281.403 293.788,279.917C309.64,275.826 322.765,265.079 329.907,250.342C333.499,242.933 335.32,235.728 336.144,225.272C336.323,222.992 336.398,186.646 336.398,150.348C336.398,114.044 336.317,77.764 336.138,75.485C335.304,64.86 333.482,57.716 329.775,50.165C326.733,43.983 323.355,39.366 318.451,34.646C309.699,26.285 298.995,21.196 286.241,19.356C280.061,18.463 278.83,18.198 247.208,18.143L204.15,18.143Z" style="fill:url(#_Radial1);fill-rule:nonzero;"/>
        </g>
        <g transform="matrix(0.18142,0,0,0.18142,-13.029,-3.292)">
            <path d="M204.15,18.143C148.92,18.143 132.767,18.2 129.627,18.461C118.293,19.403 111.24,21.188 103.556,25.015C97.635,27.955 92.964,31.365 88.356,36.145C79.962,44.86 74.875,55.582 73.033,68.328C72.138,74.516 71.877,75.778 71.824,107.384C71.804,117.919 71.824,131.785 71.824,150.382C71.824,205.583 71.885,221.724 72.15,224.858C73.066,235.89 74.795,242.831 78.458,250.423C85.458,264.956 98.827,275.866 114.577,279.937C120.031,281.342 126.054,282.115 133.786,282.482C137.062,282.624 170.454,282.726 203.867,282.726C237.28,282.726 270.692,282.686 273.887,282.523C282.841,282.101 288.04,281.403 293.788,279.917C309.64,275.826 322.765,265.079 329.907,250.342C333.499,242.933 335.32,235.728 336.144,225.272C336.323,222.992 336.398,186.646 336.398,150.348C336.398,114.044 336.317,77.764 336.138,75.485C335.304,64.86 333.482,57.716 329.775,50.165C326.733,43.983 323.355,39.366 318.451,34.646C309.699,26.285 298.995,21.196 286.241,19.356C280.061,18.463 278.83,18.198 247.208,18.143L204.15,18.143Z" style="fill:url(#_Radial2);fill-rule:nonzero;"/>
        </g>
        <g transform="matrix(0.18142,0,0,0.18142,-13.029,-3.292)">
            <path d="M204.15,18.143C148.92,18.143 132.767,18.2 129.627,18.461C118.293,19.403 111.24,21.188 103.556,25.015C97.635,27.955 92.964,31.365 88.356,36.145C79.962,44.86 74.875,55.582 73.033,68.328C72.138,74.516 71.877,75.778 71.824,107.384C71.804,117.919 71.824,131.785 71.824,150.382C71.824,205.583 71.885,221.724 72.15,224.858C73.066,235.89 74.795,242.831 78.458,250.423C85.458,264.956 98.827,275.866 114.577,279.937C120.031,281.342 126.054,282.115 133.786,282.482C137.062,282.624 170.454,282.726 203.867,282.726C237.28,282.726 270.692,282.686 273.887,282.523C282.841,282.101 288.04,281.403 293.788,279.917C309.64,275.826 322.765,265.079 329.907,250.342C333.499,242.933 335.32,235.728 336.144,225.272C336.323,222.992 336.398,186.646 336.398,150.348C336.398,114.044 336.317,77.764 336.138,75.485C335.304,64.86 333.482,57.716 329.775,50.165C326.733,43.983 323.355,39.366 318.451,34.646C309.699,26.285 298.995,21.196 286.241,19.356C280.061,18.463 278.83,18.198 247.208,18.143L204.15,18.143Z" style="fill:url(#_Radial3);fill-rule:nonzero;"/>
        </g>
        <g transform="matrix(0.18142,0,0,0.18142,-13.029,-3.292)">
            <path d="M204.15,18.143C148.92,18.143 132.767,18.2 129.627,18.461C118.293,19.403 111.24,21.188 103.556,25.015C97.635,27.955 92.964,31.365 88.356,36.145C79.962,44.86 74.875,55.582 73.033,68.328C72.138,74.516 71.877,75.778 71.824,107.384C71.804,117.919 71.824,131.785 71.824,150.382C71.824,205.583 71.885,221.724 72.15,224.858C73.066,235.89 74.795,242.831 78.458,250.423C85.458,264.956 98.827,275.866 114.577,279.937C120.031,281.342 126.054,282.115 133.786,282.482C137.062,282.624 170.454,282.726 203.867,282.726C237.28,282.726 270.692,282.686 273.887,282.523C282.841,282.101 288.04,281.403 293.788,279.917C309.64,275.826 322.765,265.079 329.907,250.342C333.499,242.933 335.32,235.728 336.144,225.272C336.323,222.992 336.398,186.646 336.398,150.348C336.398,114.044 336.317,77.764 336.138,75.485C335.304,64.86 333.482,57.716 329.775,50.165C326.733,43.983 323.355,39.366 318.451,34.646C309.699,26.285 298.995,21.196 286.241,19.356C280.061,18.463 278.83,18.198 247.208,18.143L204.15,18.143Z" style="fill:url(#_Radial4);fill-rule:nonzero;"/>
        </g>
        <path d="M24.01,6.163C19.164,6.163 18.556,6.185 16.652,6.271C14.752,6.358 13.455,6.659 12.32,7.1C11.13,7.547 10.051,8.249 9.16,9.156C8.252,10.047 7.549,11.125 7.1,12.315C6.658,13.449 6.357,14.745 6.271,16.643C6.186,18.545 6.164,19.153 6.164,23.997C6.164,28.841 6.185,29.447 6.271,31.349C6.359,33.247 6.66,34.543 7.101,35.677C7.549,36.868 8.251,37.946 9.159,38.837C10.05,39.745 11.129,40.447 12.319,40.895C13.455,41.335 14.752,41.636 16.652,41.723C18.555,41.81 19.163,41.831 24.01,41.831C28.857,41.831 29.464,41.81 31.367,41.723C33.267,41.636 34.566,41.336 35.701,40.895C36.892,40.447 37.97,39.744 38.861,38.836C39.769,37.945 40.472,36.867 40.921,35.677C41.359,34.543 41.66,33.247 41.749,31.349C41.835,29.447 41.857,28.84 41.857,23.997C41.857,19.154 41.835,18.546 41.749,16.643C41.66,14.745 41.359,13.449 40.92,12.315C40.471,11.124 39.768,10.046 38.86,9.155C37.969,8.248 36.89,7.546 35.7,7.1C34.562,6.66 33.265,6.359 31.365,6.272C29.461,6.185 28.855,6.164 24.006,6.164L24.01,6.163ZM22.41,9.377L24.01,9.377C28.776,9.377 29.34,9.394 31.223,9.48C32.963,9.56 33.907,9.85 34.536,10.094C35.311,10.38 36.012,10.836 36.587,11.428C37.18,12.003 37.636,12.704 37.923,13.478C38.167,14.107 38.458,15.05 38.537,16.789C38.623,18.669 38.641,19.234 38.641,23.993C38.641,28.753 38.623,29.317 38.537,31.197C38.457,32.937 38.167,33.88 37.923,34.507C37.637,35.282 37.18,35.982 36.587,36.557C36.012,37.149 35.311,37.605 34.537,37.89C33.907,38.135 32.963,38.425 31.223,38.505C29.341,38.59 28.776,38.609 24.011,38.609C19.245,38.609 18.681,38.59 16.799,38.505C15.059,38.425 14.115,38.134 13.485,37.89C12.71,37.604 12.009,37.148 11.433,36.556C10.84,35.981 10.384,35.281 10.097,34.506C9.853,33.878 9.562,32.935 9.483,31.196C9.397,29.316 9.38,28.751 9.38,23.989C9.38,19.227 9.397,18.665 9.483,16.785C9.563,15.045 9.853,14.102 10.097,13.474C10.383,12.699 10.84,11.998 11.433,11.423C12.009,10.831 12.71,10.374 13.485,10.088C14.115,9.843 15.059,9.553 16.799,9.473C18.446,9.399 19.084,9.377 22.409,9.373L22.41,9.377ZM33.537,12.338C32.364,12.339 31.399,13.305 31.399,14.478C31.399,15.652 32.365,16.618 33.539,16.618C34.713,16.618 35.679,15.652 35.679,14.478C35.679,13.296 34.719,12.338 33.537,12.338ZM24.011,14.838C18.95,14.838 14.846,18.94 14.846,23.998C14.846,29.056 18.95,33.154 24.011,33.154C29.072,33.154 33.175,29.055 33.175,23.997C33.175,18.939 29.072,14.839 24.011,14.839L24.011,14.838ZM24.011,18.053C27.273,18.052 29.958,20.735 29.96,23.997C29.959,27.259 27.275,29.942 24.013,29.942C24.012,29.942 24.011,29.942 24.01,29.942C20.748,29.943 18.063,27.259 18.062,23.997C18.063,20.736 20.747,18.053 24.008,18.053C24.009,18.053 24.01,18.053 24.011,18.053Z" style="fill:white;fill-rule:nonzero;"/>
    </g>
    <defs>
        <radialGradient id="_Radial1" cx="0" cy="0" r="1" gradientUnits="userSpaceOnUse" gradientTransform="matrix(-162.71,45.8876,-33.0603,-117.221,327.893,142.18)"><stop offset="0" style="stop-color:rgb(255,0,95);stop-opacity:1"/><stop offset="1" style="stop-color:rgb(252,1,216);stop-opacity:1"/></radialGradient>
        <radialGradient id="_Radial2" cx="0" cy="0" r="1" gradientUnits="userSpaceOnUse" gradientTransform="matrix(0,-211.198,224.077,0,142.141,303.102)"><stop offset="0" style="stop-color:rgb(255,204,0);stop-opacity:1"/><stop offset="0.12" style="stop-color:rgb(255,204,0);stop-opacity:1"/><stop offset="0.57" style="stop-color:rgb(254,74,5);stop-opacity:1"/><stop offset="0.69" style="stop-color:rgb(255,15,63);stop-opacity:1"/><stop offset="1" style="stop-color:rgb(254,6,87);stop-opacity:0"/></radialGradient>
        <radialGradient id="_Radial3" cx="0" cy="0" r="1" gradientUnits="userSpaceOnUse" gradientTransform="matrix(43.8366,-75.53,98.332,57.0707,210.764,279.004)"><stop offset="0" style="stop-color:rgb(255,204,0);stop-opacity:1"/><stop offset="1" style="stop-color:rgb(255,204,0);stop-opacity:0"/></radialGradient>
        <radialGradient id="_Radial4" cx="0" cy="0" r="1" gradientUnits="userSpaceOnUse" gradientTransform="matrix(-160.921,45.3125,-15.434,-54.8266,107.723,28.9146)"><stop offset="0" style="stop-color:rgb(120,12,255);stop-opacity:1"/><stop offset="1" style="stop-color:rgb(130,11,255);stop-opacity:0"/></radialGradient>
    </defs>
</svg>
