<?xml version="1.0" encoding="UTF-8" standalone="no"?>
<!DOCTYPE svg PUBLIC "-//W3C//DTD SVG 1.1//EN" "http://www.w3.org/Graphics/SVG/1.1/DTD/svg11.dtd">
<svg width="100%" height="100%" viewBox="0 0 1024 1024" version="1.1" xmlns="http://www.w3.org/2000/svg"
    xml:space="preserve" style="fill-rule:evenodd;clip-rule:evenodd;stroke-linejoin:round;stroke-miterlimit:2;">
    <g id="Lark" transform="matrix(24.0532,0,0,24.0532,-11027.1,-11811.3)">
        <g transform="matrix(1,0,0,1,462,498)">
            <path d="M18.43,15.043L18.518,14.956C18.574,14.899 18.635,14.839 18.695,14.782L18.817,14.665L19.177,14.309L19.672,13.828L20.092,13.411L20.487,13.021L20.899,12.613L21.277,12.24L21.807,11.72C21.906,11.62 22.01,11.524 22.114,11.429C22.305,11.255 22.504,11.086 22.704,10.921C23.154,10.565 23.626,10.239 24.118,9.945C24.401,9.78 24.691,9.624 24.986,9.476C25.422,9.265 25.872,9.081 26.331,8.926C26.414,8.899 26.496,8.869 26.583,8.843C25.851,5.96 24.509,3.267 22.648,0.947C22.287,0.5 21.742,0.24 21.168,0.24L5.962,0.24C5.805,0.24 5.676,0.369 5.676,0.526C5.676,0.617 5.719,0.702 5.792,0.756C10.982,4.561 15.283,9.449 18.396,15.082L18.431,15.042L18.43,15.043Z" style="fill:rgb(0,214,185);fill-rule:nonzero;"/>
        </g>
        <g transform="matrix(1,0,0,1,462,498)">
            <path d="M12.386,28.427C20.239,28.427 27.081,24.093 30.647,17.689C30.773,17.463 30.894,17.238 31.011,17.008C30.773,17.47 30.493,17.908 30.174,18.318C29.991,18.553 29.797,18.779 29.593,18.995C29.312,19.291 29.007,19.564 28.682,19.81C28.549,19.914 28.411,20.012 28.27,20.105C28.09,20.227 27.904,20.341 27.715,20.448C27.161,20.758 26.572,20.999 25.961,21.168C25.655,21.254 25.344,21.321 25.029,21.368C24.803,21.403 24.569,21.428 24.339,21.446C24.096,21.463 23.849,21.468 23.601,21.468C23.326,21.464 23.051,21.446 22.777,21.416C22.572,21.393 22.368,21.364 22.165,21.329C21.986,21.298 21.808,21.26 21.632,21.216C21.536,21.194 21.445,21.168 21.35,21.142C21.089,21.072 20.829,20.999 20.569,20.925C20.439,20.886 20.309,20.852 20.183,20.813C19.99,20.756 19.797,20.697 19.605,20.635C19.449,20.587 19.293,20.535 19.137,20.483C18.989,20.435 18.837,20.387 18.69,20.335L18.386,20.231L18.018,20.101L17.758,20.006C17.585,19.945 17.412,19.881 17.241,19.815C17.141,19.775 17.041,19.741 16.941,19.702L16.543,19.546L16.122,19.376L15.848,19.264L15.51,19.124L15.25,19.017L14.98,18.899L14.746,18.795L14.534,18.7L14.317,18.6L14.096,18.496L13.814,18.366L13.519,18.226C13.415,18.175 13.31,18.127 13.206,18.075L12.942,17.945C8.275,15.616 4.06,12.473 0.495,8.665C0.441,8.608 0.366,8.576 0.287,8.576C0.131,8.576 0.001,8.704 0,8.86L0.009,22.28L0.009,23.369C0.009,24.002 0.321,24.592 0.846,24.944C4.261,27.225 8.279,28.438 12.386,28.428L12.386,28.427Z" style="fill:rgb(51,112,255);fill-rule:nonzero;"/>
        </g>
        <g transform="matrix(1,0,0,1,462,498)">
            <path d="M35.463,9.511C32.7,8.157 29.519,7.916 26.583,8.839C26.5,8.865 26.417,8.891 26.331,8.921C25.562,9.186 24.821,9.526 24.118,9.936C23.828,10.106 23.549,10.288 23.276,10.483C22.868,10.769 22.479,11.082 22.113,11.42C22.009,11.516 21.91,11.611 21.805,11.71L21.276,12.231L20.899,12.605L20.487,13.012L20.092,13.402L19.671,13.819L19.181,14.305L18.821,14.661L18.699,14.778C18.641,14.837 18.581,14.895 18.521,14.952L18.434,15.039L18.3,15.164L18.148,15.304C16.84,16.505 15.385,17.535 13.818,18.37L14.1,18.5L14.322,18.605L14.539,18.705L14.751,18.8L14.985,18.904L15.255,19.021L15.515,19.13L15.853,19.269L16.126,19.381L16.547,19.551C16.677,19.603 16.812,19.655 16.947,19.707C17.047,19.746 17.146,19.78 17.246,19.82C17.419,19.885 17.593,19.945 17.762,20.01L18.022,20.106C18.144,20.149 18.265,20.193 18.392,20.236L18.695,20.34C18.842,20.388 18.99,20.44 19.142,20.488C19.298,20.54 19.454,20.588 19.61,20.64C19.801,20.7 19.996,20.757 20.187,20.817C20.575,20.932 20.964,21.042 21.354,21.147C21.45,21.173 21.541,21.195 21.636,21.221C21.814,21.264 21.992,21.299 22.17,21.334C22.374,21.368 22.578,21.399 22.782,21.42C23.531,21.507 24.289,21.49 25.034,21.372C25.346,21.325 25.658,21.256 25.966,21.173C26.36,21.065 26.744,20.926 27.116,20.757C27.423,20.619 27.72,20.461 28.006,20.284C28.101,20.227 28.187,20.167 28.274,20.11C28.413,20.015 28.552,19.92 28.686,19.815C28.803,19.728 28.916,19.637 29.025,19.542C29.448,19.175 29.834,18.766 30.175,18.322C30.488,17.912 30.767,17.476 31.008,17.02L31.211,16.618L33.025,13.004L33.046,12.96C33.64,11.675 34.458,10.507 35.463,9.511Z" style="fill:rgb(19,60,154);fill-rule:nonzero;"/>
        </g>
    </g>
</svg>
