<?xml version="1.0" encoding="UTF-8" standalone="no"?>
<!DOCTYPE svg PUBLIC "-//W3C//DTD SVG 1.1//EN" "http://www.w3.org/Graphics/SVG/1.1/DTD/svg11.dtd">
<svg width="100%" height="100%" viewBox="0 0 1024 1024" version="1.1" xmlns="http://www.w3.org/2000/svg"
    xml:space="preserve" style="fill-rule:evenodd;clip-rule:evenodd;stroke-linejoin:round;stroke-miterlimit:2;">
    <g id="Mega" transform="matrix(35.5417,0,0,35.5417,-17685.3,-17685.3)">
        <g transform="matrix(1,0,0,1,500,500)">
            <path d="M12,24C5.376,24 0,18.624 0,12C0,5.376 5.376,0 12,0C18.624,0 24,5.376 24,12C24,18.624 18.624,24 12,24Z" style="fill:rgb(221,20,5);"/>
        </g>
        <g transform="matrix(1,0,0,1,500,500)">
            <path d="M18,15.653C18,15.848 17.843,16 17.648,16L16.133,16C15.938,16 15.78,15.848 15.78,15.653L15.78,11.125C15.78,11.081 15.727,11.067 15.705,11.089L12.503,14.209C12.225,14.483 11.775,14.483 11.498,14.209L8.295,11.089C8.273,11.067 8.22,11.081 8.22,11.125L8.22,15.653C8.22,15.848 8.063,16 7.868,16L6.353,16C6.158,16 6,15.848 6,15.653L6,7.68C6,7.485 6.158,7.333 6.353,7.333L7.395,7.333C7.582,7.333 7.763,7.405 7.898,7.535L11.873,11.414C11.94,11.479 12.06,11.479 12.128,11.414L16.102,7.535C16.238,7.405 16.418,7.333 16.605,7.333L17.648,7.333C17.843,7.333 18,7.485 18,7.68L18,15.653Z" style="fill:white;"/>
        </g>
    </g>
</svg>
