<?xml version="1.0" encoding="UTF-8" standalone="no"?>
<!DOCTYPE svg PUBLIC "-//W3C//DTD SVG 1.1//EN" "http://www.w3.org/Graphics/SVG/1.1/DTD/svg11.dtd">
<svg width="100%" height="100%" viewBox="0 0 1024 1024" version="1.1" xmlns="http://www.w3.org/2000/svg"
    xml:space="preserve" style="fill-rule:evenodd;clip-rule:evenodd;stroke-linejoin:round;stroke-miterlimit:2;">
    <g id="OKX" transform="matrix(2.5471,0,0,2.21864,-1907.34,112.941)">
        <path d="M998.167,119.92L901.429,119.92C897.321,119.92 893.988,123.498 893.988,127.913L893.988,231.831C893.988,236.246 897.321,239.825 901.429,239.825L998.167,239.825C1002.28,239.825 1005.61,236.246 1005.61,231.831L1005.61,127.913C1005.61,123.498 1002.28,119.92 998.167,119.92Z" style="fill-rule:nonzero;"/>
        <path d="M886.572,0.006L789.837,0.006C785.727,0.006 782.396,3.585 782.396,7.999L782.396,111.917C782.396,116.332 785.727,119.911 789.837,119.911L886.572,119.911C890.683,119.911 894.016,116.332 894.016,111.917L894.016,7.999C894.016,3.585 890.683,0.006 886.572,0.006Z" style="fill-rule:nonzero;"/>
        <path d="M1109.85,0.006L1013.11,0.006C1009,0.006 1005.67,3.585 1005.67,7.999L1005.67,111.917C1005.67,116.332 1009,119.911 1013.11,119.911L1109.85,119.911C1113.96,119.911 1117.29,116.332 1117.29,111.917L1117.29,7.999C1117.29,3.585 1113.96,0.006 1109.85,0.006Z" style="fill-rule:nonzero;"/>
        <path d="M886.572,239.822L789.837,239.822C785.727,239.822 782.396,243.401 782.396,247.815L782.396,351.734C782.396,356.148 785.727,359.728 789.837,359.728L886.572,359.728C890.683,359.728 894.016,356.148 894.016,351.734L894.016,247.815C894.016,243.401 890.683,239.822 886.572,239.822Z" style="fill-rule:nonzero;"/>
        <path d="M1109.85,239.822L1013.11,239.822C1009,239.822 1005.67,243.401 1005.67,247.815L1005.67,351.734C1005.67,356.148 1009,359.728 1013.11,359.728L1109.85,359.728C1113.96,359.728 1117.29,356.148 1117.29,351.734L1117.29,247.815C1117.29,243.401 1113.96,239.822 1109.85,239.822Z" style="fill-rule:nonzero;"/>
    </g>
</svg>
