<?xml version="1.0" encoding="UTF-8" standalone="no"?>
<!DOCTYPE svg PUBLIC "-//W3C//DTD SVG 1.1//EN" "http://www.w3.org/Graphics/SVG/1.1/DTD/svg11.dtd">
<svg width="100%" height="100%" viewBox="0 0 1024 1024" version="1.1" xmlns="http://www.w3.org/2000/svg"
    xml:space="preserve" style="fill-rule:evenodd;clip-rule:evenodd;stroke-linejoin:round;stroke-miterlimit:2;">
    <g id="OnlyFans" transform="matrix(0.359203,0,0,0.359203,51.8184,226.866)">
        <path d="M885.33,0C989.292,0 1092.21,20.525 1188.25,60.417C1284.28,100.309 1371.55,158.765 1445.03,232.489C1518.55,306.184 1576.83,393.69 1616.63,490.019C1656.42,586.352 1676.9,689.57 1676.9,793.796C1676.9,1114.86 1484.03,1404.29 1188.25,1527.15C892.459,1650 551.997,1582.1 325.627,1355.07C99.257,1128.05 31.533,786.638 154.03,490.019C276.557,193.4 565.186,0 885.33,0ZM885.33,1031.9C916.519,1031.93 947.41,1025.81 976.252,1013.87C1005.1,1001.93 1031.26,984.374 1053.33,962.245C1075.4,940.116 1092.87,913.858 1104.81,884.957C1116.73,856.034 1122.84,825.048 1122.81,793.767C1122.81,697.438 1064.95,610.615 976.223,573.753C887.498,536.891 785.348,557.267 717.446,625.378C649.544,693.488 629.226,795.905 665.97,884.897C702.713,973.889 789.328,1031.9 885.36,1031.9L885.33,1031.9Z" style="fill:rgb(0,174,239);fill-rule:nonzero;"/>
        <path d="M1775.04,595.347C1976.16,653.388 2213.55,595.347 2213.55,595.347C2144.67,896.986 1926.17,1085.9 1611.13,1108.89C1580.77,1179.59 1540.26,1245.49 1490.89,1304.52C1441.58,1363.49 1383.92,1414.95 1319.74,1457.28C1255.58,1499.58 1185.63,1532.29 1112.06,1554.36C1038.48,1576.42 962.114,1587.59 885.33,1587.56L1122.81,830.688C1366.91,52.724 1492.05,0.03 2070.97,0.03L2468.47,0.03C2401.99,293.738 2172.8,518.089 1775.07,595.347L1775.04,595.347Z" style="fill:rgb(0,140,207);fill-rule:nonzero;"/>
    </g>
</svg>
