<?xml version="1.0" encoding="UTF-8" standalone="no"?>
<!DOCTYPE svg PUBLIC "-//W3C//DTD SVG 1.1//EN" "http://www.w3.org/Graphics/SVG/1.1/DTD/svg11.dtd">
<svg width="100%" height="100%" viewBox="0 0 1024 1024" version="1.1" xmlns="http://www.w3.org/2000/svg"
    xml:space="preserve" style="fill-rule:evenodd;clip-rule:evenodd;stroke-linejoin:round;stroke-miterlimit:2;">
    <g id="OpenAI" transform="matrix(30.7113,0,0,30.7113,83.4006,-1853.04)">
        <path d="M10.721,73.265L10.721,70.65C10.721,70.43 10.804,70.265 10.996,70.155L16.254,67.127C16.97,66.714 17.823,66.521 18.704,66.521C22.007,66.521 24.099,69.081 24.099,71.806C24.099,71.999 24.099,72.219 24.072,72.439L18.621,69.246C18.291,69.054 17.961,69.054 17.63,69.246L10.721,73.265ZM22.998,83.45L22.998,77.201C22.998,76.816 22.833,76.541 22.503,76.348L15.593,72.329L17.851,71.035C18.043,70.925 18.209,70.925 18.401,71.035L23.659,74.063C25.173,74.944 26.191,76.816 26.191,78.633C26.191,80.725 24.953,82.652 22.998,83.45L22.998,83.45ZM9.097,77.945L6.84,76.624C6.647,76.514 6.565,76.348 6.565,76.128L6.565,70.072C6.565,67.127 8.822,64.897 11.877,64.897C13.034,64.897 14.107,65.283 15.016,65.971L9.593,69.109C9.263,69.302 9.097,69.577 9.097,69.962L9.097,77.945L9.097,77.945ZM13.956,80.752L10.721,78.936L10.721,75.082L13.956,73.265L17.19,75.082L17.19,78.936L13.956,80.752ZM16.034,89.121C14.878,89.121 13.804,88.735 12.896,88.047L18.318,84.909C18.649,84.716 18.814,84.441 18.814,84.056L18.814,76.073L21.099,77.394C21.291,77.504 21.374,77.669 21.374,77.89L21.374,83.945C21.374,86.891 19.089,89.121 16.034,89.121L16.034,89.121ZM9.51,82.982L4.252,79.954C2.738,79.073 1.72,77.202 1.72,75.385C1.72,73.265 2.986,71.366 4.94,70.568L4.94,76.844C4.94,77.229 5.106,77.505 5.436,77.697L12.318,81.688L10.06,82.982C9.868,83.092 9.703,83.092 9.51,82.982ZM9.207,87.497C6.097,87.497 3.812,85.157 3.812,82.267C3.812,82.046 3.84,81.826 3.867,81.606L9.29,84.744C9.62,84.937 9.951,84.937 10.281,84.744L17.19,80.753L17.19,83.368C17.19,83.588 17.107,83.753 16.915,83.863L11.657,86.891C10.941,87.304 10.088,87.497 9.207,87.497L9.207,87.497ZM16.034,90.772C19.365,90.772 22.145,88.405 22.778,85.267C25.861,84.468 27.843,81.578 27.843,78.633C27.843,76.706 27.017,74.834 25.531,73.485C25.668,72.907 25.751,72.329 25.751,71.751C25.751,67.815 22.558,64.869 18.869,64.869C18.126,64.869 17.41,64.979 16.695,65.227C15.456,64.016 13.749,63.245 11.877,63.245C8.547,63.245 5.767,65.613 5.133,68.751C2.05,69.549 0.068,72.439 0.068,75.385C0.068,77.312 0.894,79.183 2.381,80.532C2.243,81.11 2.16,81.688 2.16,82.266C2.16,86.202 5.353,89.148 9.042,89.148C9.785,89.148 10.501,89.038 11.217,88.79C12.455,90.002 14.162,90.772 16.034,90.772Z" style="fill-rule:nonzero;"/>
    </g>
</svg>
