<?xml version="1.0" encoding="UTF-8" standalone="no"?>
<!DOCTYPE svg PUBLIC "-//W3C//DTD SVG 1.1//EN" "http://www.w3.org/Graphics/SVG/1.1/DTD/svg11.dtd">
<svg width="100%" height="100%" viewBox="0 0 1024 1024" version="1.1" xmlns="http://www.w3.org/2000/svg"
    xml:space="preserve" style="fill-rule:evenodd;clip-rule:evenodd;stroke-linejoin:round;stroke-miterlimit:2;">
    <g id="Patreon" transform="matrix(21.3238,0,0,21.3238,106.848,64.1763)">
        <path d="M36.975,12.392C36.975,12.704 36.996,13.019 36.971,13.329C36.941,13.69 36.889,14.051 36.822,14.409C36.729,14.917 36.619,15.421 36.491,15.921C36.396,16.29 36.276,16.652 36.132,17.005C35.819,17.772 35.472,18.523 35.015,19.215C34.733,19.642 34.445,20.064 34.151,20.481C34.038,20.633 33.914,20.777 33.781,20.912C33.556,21.15 33.339,21.395 33.095,21.607C32.737,21.928 32.362,22.231 31.972,22.512C31.616,22.762 31.216,22.943 30.852,23.186C30.448,23.454 29.986,23.57 29.556,23.773C29.172,23.953 28.761,24.013 28.37,24.153C27.872,24.333 27.349,24.375 26.839,24.484C26.295,24.601 25.742,24.687 25.196,24.799C24.747,24.889 24.302,24.997 23.856,25.097C23.602,25.153 23.346,25.195 23.1,25.27C22.796,25.363 22.5,25.484 22.204,25.594C22.003,25.666 21.792,25.72 21.6,25.813C21.32,25.953 21.056,26.128 20.777,26.277C20.32,26.519 19.939,26.862 19.593,27.237C19.301,27.557 19.047,27.918 18.793,28.273C18.375,28.86 18.087,29.517 17.829,30.189C17.575,30.846 17.342,31.511 17.104,32.175C16.883,32.8 16.674,33.427 16.449,34.05C16.25,34.591 16.044,35.129 15.831,35.665C15.527,36.436 15.152,37.178 14.711,37.88C14.38,38.411 14.026,38.929 13.569,39.358C13.203,39.701 12.849,40.062 12.399,40.302C11.953,40.542 11.493,40.75 10.999,40.859C10.405,40.984 9.797,41.028 9.192,40.988C8.963,40.976 8.737,40.913 8.508,40.871C8.371,40.845 8.232,40.824 8.099,40.782C7.987,40.747 7.884,40.685 7.777,40.631C7.475,40.484 7.153,40.367 6.877,40.183C6.539,39.947 6.218,39.688 5.917,39.407C5.363,38.915 4.947,38.304 4.575,37.667C4.323,37.241 4.096,36.8 3.894,36.348C3.702,35.912 3.558,35.455 3.402,35.003C3.281,34.651 3.167,34.297 3.062,33.94C2.97,33.623 2.897,33.299 2.819,32.977C2.746,32.679 2.669,32.383 2.607,32.082C2.495,31.546 2.392,31.009 2.287,30.473C2.24,30.247 2.196,30.02 2.154,29.793C2.094,29.453 2.04,29.112 1.983,28.771C1.939,28.517 1.891,28.265 1.853,28.011C1.809,27.731 1.773,27.451 1.729,27.172C1.693,26.93 1.651,26.689 1.617,26.447C1.585,26.221 1.557,25.995 1.528,25.769C1.495,25.526 1.464,25.282 1.434,25.039C1.404,24.803 1.379,24.568 1.352,24.332L1.256,23.514C1.245,23.416 1.233,23.321 1.226,23.223C1.192,22.822 1.158,22.419 1.126,22.015C1.105,21.765 1.088,21.515 1.076,21.265C1.055,20.875 1.034,20.488 1.026,20.099C1.011,19.459 1.002,18.82 1,18.18C1,17.802 1.002,17.425 1.027,17.05C1.053,16.658 1.107,16.266 1.149,15.874C1.183,15.562 1.213,15.252 1.254,14.94C1.277,14.765 1.318,14.592 1.354,14.42C1.446,13.988 1.53,13.557 1.635,13.128C1.711,12.818 1.816,12.518 1.901,12.212C2.058,11.641 2.294,11.102 2.525,10.559C2.63,10.309 2.76,10.069 2.892,9.834C3.078,9.505 3.258,9.174 3.468,8.864C3.727,8.486 4.001,8.12 4.291,7.766C4.566,7.43 4.857,7.108 5.164,6.801C5.404,6.561 5.676,6.353 5.934,6.136C6.188,5.924 6.435,5.703 6.704,5.512C7.116,5.216 7.539,4.936 7.967,4.663C8.216,4.505 8.481,4.369 8.741,4.229C9.146,4.01 9.551,3.789 9.961,3.581C10.221,3.451 10.488,3.337 10.755,3.227C11.438,2.95 12.119,2.67 12.81,2.411C13.27,2.241 13.742,2.108 14.209,1.959C14.449,1.882 14.684,1.798 14.926,1.73C15.126,1.674 15.328,1.644 15.53,1.597C15.75,1.547 15.964,1.478 16.186,1.437C16.485,1.378 16.789,1.337 17.093,1.29C17.433,1.238 17.772,1.185 18.113,1.138C18.252,1.119 18.396,1.118 18.538,1.108C19.008,1.082 19.482,1.054 19.952,1.031C20.14,1.021 20.334,0.98 20.517,1.012C20.96,1.092 21.406,1.029 21.849,1.062C22.277,1.092 22.702,1.138 23.127,1.189C23.433,1.227 23.735,1.292 24.041,1.339C24.309,1.379 24.576,1.404 24.843,1.446C25.058,1.481 25.273,1.527 25.488,1.574C25.948,1.677 26.407,1.77 26.862,1.891C27.266,2.001 27.659,2.166 28.066,2.261C28.535,2.374 28.965,2.593 29.417,2.74C29.879,2.889 30.277,3.164 30.717,3.348C31.232,3.565 31.677,3.894 32.135,4.206C32.482,4.444 32.82,4.698 33.135,4.976C33.602,5.386 34.055,5.812 34.491,6.256C34.749,6.516 34.969,6.82 35.204,7.106C35.584,7.57 35.862,8.099 36.132,8.629C36.347,9.053 36.525,9.503 36.669,9.958C36.789,10.331 36.825,10.732 36.914,11.114C37.012,11.534 37.01,11.958 36.987,12.384L36.975,12.392Z" style="fill-rule:nonzero;"/>
    </g>
</svg>
