<?xml version="1.0" encoding="UTF-8" standalone="no"?>
<!DOCTYPE svg PUBLIC "-//W3C//DTD SVG 1.1//EN" "http://www.w3.org/Graphics/SVG/1.1/DTD/svg11.dtd">
<svg width="100%" height="100%" viewBox="0 0 1024 1024" version="1.1" xmlns="http://www.w3.org/2000/svg"
    xml:space="preserve" style="fill-rule:evenodd;clip-rule:evenodd;stroke-linejoin:round;stroke-miterlimit:2;">
    <g id="PayPal" transform="matrix(14.3356,0,0,14.3356,150.55,78.367)">
        <path d="M25.547,57.548L27.359,46.054L27.476,45.417C27.564,44.863 27.847,44.356 28.275,43.992C28.702,43.627 29.247,43.425 29.808,43.425L31.248,43.425C33.647,43.425 35.852,43.169 37.8,42.664C39.879,42.125 41.728,41.285 43.295,40.171C44.957,38.989 46.353,37.461 47.444,35.631C48.596,33.7 49.441,31.375 49.958,28.722C50.414,26.379 50.499,24.281 50.213,22.487C49.909,20.591 49.179,18.973 48.042,17.678C47.353,16.893 46.472,16.213 45.422,15.656L45.397,15.643L45.396,15.613C45.763,13.274 45.749,11.323 45.355,9.644C44.958,7.961 44.156,6.446 42.899,5.015C40.296,2.048 35.562,0.544 28.828,0.544L10.334,0.544C9.716,0.544 9.116,0.765 8.645,1.167C8.175,1.569 7.864,2.127 7.767,2.738L0.066,51.57C-0.004,52.016 0.124,52.468 0.417,52.81C0.71,53.154 1.137,53.351 1.588,53.351L13.061,53.351L13.051,53.405L12.263,58.402C12.202,58.79 12.314,59.184 12.569,59.482C12.824,59.781 13.196,59.953 13.588,59.953L23.212,59.953C23.752,59.953 24.275,59.76 24.685,59.409C25.095,59.058 25.368,58.572 25.452,58.039L25.547,57.548" style="fill:rgb(39,52,106);"/>
        <path d="M45.443,15.615C45.388,15.968 45.327,16.327 45.254,16.698C42.816,29.219 34.472,33.548 23.815,33.548L18.388,33.548C17.086,33.548 15.987,34.496 15.784,35.782L12.217,58.395C12.084,59.238 12.736,60 13.588,60L23.212,60C24.351,60 25.321,59.172 25.498,58.046L25.593,57.557L27.405,46.061L27.522,45.426C27.7,44.301 28.67,43.472 29.808,43.472L31.248,43.472C40.571,43.472 47.871,39.684 50.004,28.73C50.895,24.153 50.435,20.333 48.078,17.647C47.365,16.835 46.478,16.162 45.443,15.615" style="fill:rgb(39,144,195);"/>
        <path d="M18.954,15.676C19.076,14.902 19.572,14.269 20.241,13.948C20.545,13.803 20.884,13.722 21.24,13.722L35.736,13.722C37.454,13.722 39.055,13.835 40.519,14.07C40.938,14.138 41.344,14.215 41.74,14.303C42.136,14.391 42.519,14.488 42.891,14.598C43.077,14.652 43.259,14.708 43.439,14.768C44.158,15.007 44.827,15.288 45.443,15.615C46.169,10.986 45.438,7.836 42.935,4.984C40.178,1.843 35.199,0.498 28.828,0.498L10.334,0.498C9.032,0.498 7.924,1.445 7.721,2.731L0.02,51.563C-0.132,52.527 0.613,53.398 1.588,53.398L13.005,53.398L18.954,15.676" style="fill:rgb(39,52,106);"/>
        <path d="M42.891,14.598C42.519,14.488 42.136,14.391 41.74,14.303C41.344,14.215 40.938,14.138 40.519,14.07C39.055,13.835 37.454,13.722 35.736,13.722L21.24,13.722C20.884,13.722 20.545,13.803 20.241,13.948C19.572,14.269 19.076,14.902 18.954,15.676L15.873,35.212L15.784,35.782C15.987,34.496 17.086,33.548 18.388,33.548L23.815,33.548C34.472,33.548 42.816,29.219 45.254,16.698C45.327,16.327 45.388,15.968 45.443,15.615C44.827,15.288 44.158,15.007 43.439,14.768C43.259,14.708 43.077,14.652 42.891,14.598" style="fill:rgb(31,38,79);"/>
    </g>
</svg>
