<?xml version="1.0" encoding="UTF-8" standalone="no"?>
<!DOCTYPE svg PUBLIC "-//W3C//DTD SVG 1.1//EN" "http://www.w3.org/Graphics/SVG/1.1/DTD/svg11.dtd">
<svg width="100%" height="100%" viewBox="0 0 1024 1024" version="1.1" xmlns="http://www.w3.org/2000/svg"
    xml:space="preserve" style="fill-rule:evenodd;clip-rule:evenodd;stroke-linejoin:round;stroke-miterlimit:2;">
    <g id="Pixiv" transform="matrix(0.656832,0,0,0.656832,-4.98514,303.072)">
        <path d="M502.66,201.62L557.56,201.62C562.61,201.62 566.7,205.72 566.7,210.76L566.7,498.64C566.7,503.69 562.6,507.78 557.56,507.78L502.66,507.78C497.61,507.78 493.52,503.68 493.52,498.64L493.52,210.76C493.52,205.71 497.62,201.62 502.66,201.62Z" style="fill:rgb(0,150,250);fill-rule:nonzero;"/>
        <path d="M842.38,357.3C841.28,355.73 841.28,353.63 842.38,352.06L942.69,208.81C944.81,205.78 942.64,201.62 938.95,201.62L872.66,201.62C863.71,201.62 855.33,205.99 850.19,213.31L778.06,316.32C776.24,318.92 772.4,318.92 770.58,316.32L698.45,213.31C693.32,205.98 684.93,201.62 675.98,201.62L609.69,201.62C606,201.62 603.83,205.78 605.95,208.81L706.26,352.06C707.36,353.63 707.36,355.73 706.26,357.3L605.92,500.6C603.8,503.63 605.97,507.79 609.66,507.79L675.95,507.79C684.9,507.79 693.28,503.42 698.42,496.1L770.58,393.04C772.4,390.44 776.24,390.44 778.06,393.04L850.22,496.1C855.35,503.43 863.74,507.79 872.69,507.79L938.98,507.79C942.67,507.79 944.84,503.63 942.72,500.6L842.38,357.3Z" style="fill:rgb(0,150,250);fill-rule:nonzero;"/>
        <path d="M137.77,535.18C137.77,540.23 141.86,544.32 146.91,544.32L201.81,544.32C206.86,544.32 210.95,540.23 210.95,535.18L210.95,485.25C234.2,499.51 261.55,507.73 290.82,507.73C375.35,507.73 443.87,439.21 443.87,354.68C443.87,270.15 375.35,201.63 290.82,201.63C254.86,201.63 221.83,214.06 195.7,234.82L177.05,205.83C175.37,203.21 172.47,201.63 169.36,201.63L146.9,201.63C141.85,201.63 137.76,205.72 137.76,210.77L137.76,535.18L137.77,535.18ZM290.83,434.54C246.72,434.54 210.96,398.78 210.96,354.67C210.96,310.56 246.72,274.8 290.83,274.8C334.94,274.8 370.7,310.56 370.7,354.67C370.7,398.78 334.94,434.54 290.83,434.54Z" style="fill:rgb(0,150,250);fill-rule:nonzero;"/>
        <path d="M530.11,165.03C550.32,165.03 566.7,148.65 566.7,128.44C566.7,108.23 550.32,91.85 530.11,91.85C509.9,91.85 493.52,108.23 493.52,128.44C493.52,148.65 509.9,165.03 530.11,165.03Z" style="fill:rgb(0,150,250);fill-rule:nonzero;"/>
        <path d="M990.95,201.62L1045.85,201.62C1050.9,201.62 1054.99,205.72 1054.99,210.76L1054.99,498.64C1054.99,503.69 1050.89,507.78 1045.85,507.78L990.95,507.78C985.9,507.78 981.81,503.68 981.81,498.64L981.81,210.76C981.81,205.71 985.91,201.62 990.95,201.62Z" style="fill:rgb(0,150,250);fill-rule:nonzero;"/>
        <path d="M1018.4,165.03C1038.61,165.03 1054.99,148.65 1054.99,128.44C1054.99,108.23 1038.61,91.85 1018.4,91.85C998.19,91.85 981.81,108.23 981.81,128.44C981.81,148.65 998.19,165.03 1018.4,165.03Z" style="fill:rgb(0,150,250);fill-rule:nonzero;"/>
        <path d="M1353.36,219.22L1267.24,443.56C1265.74,447.47 1260.21,447.47 1258.71,443.56L1172.59,219.22C1168.52,208.62 1158.34,201.62 1146.99,201.62L1094.09,201.62C1090.89,201.62 1088.68,204.83 1089.83,207.82L1202.72,501.91C1204.08,505.44 1207.47,507.78 1211.25,507.78L1314.69,507.78C1318.47,507.78 1321.87,505.45 1323.22,501.91L1436.11,207.82C1437.26,204.83 1435.05,201.62 1431.85,201.62L1378.95,201.62C1367.6,201.62 1357.42,208.62 1353.35,219.22L1353.36,219.22Z" style="fill:rgb(0,150,250);fill-rule:nonzero;"/>
    </g>
</svg>
