<?xml version="1.0" encoding="UTF-8" standalone="no"?>
<!DOCTYPE svg PUBLIC "-//W3C//DTD SVG 1.1//EN" "http://www.w3.org/Graphics/SVG/1.1/DTD/svg11.dtd">
<svg width="100%" height="100%" viewBox="0 0 1024 1024" version="1.1" xmlns="http://www.w3.org/2000/svg"
    xml:space="preserve" style="fill-rule:evenodd;clip-rule:evenodd;stroke-linejoin:round;stroke-miterlimit:2;">
    <g id="Tencent" transform="matrix(30.518,0,0,30.518,85.5,206.82)">
        <path d="M24.2,16.333C23.751,16.778 22.852,17.444 21.279,17.444L11.616,17.444C14.537,14.667 17.009,12.333 17.234,12.111C17.459,11.889 18.02,11.333 18.582,10.889C19.706,9.889 20.605,9.778 21.391,9.778C22.515,9.778 23.414,10.222 24.2,10.889C25.773,12.333 25.773,14.889 24.2,16.333ZM26.111,9.111C24.987,7.889 23.301,7.111 21.504,7.111C19.931,7.111 18.582,7.667 17.346,8.556C16.897,9 16.223,9.444 15.661,10.111C15.211,10.556 5.548,19.889 5.548,19.889C6.11,20 6.784,20 7.346,20L19.594,20C20.492,20 21.167,20 21.841,19.889C23.301,19.778 24.762,19.222 25.998,18.111C28.583,15.667 28.583,11.556 26.111,9.111Z" style="fill:rgb(0,163,255);fill-rule:nonzero;"/>
        <path d="M10.38,8.444C9.144,7.556 7.908,7.111 6.447,7.111C4.649,7.111 2.964,7.889 1.84,9.111C-0.632,11.667 -0.632,15.667 1.953,18.222C3.076,19.222 4.2,19.778 5.548,19.889L8.133,17.444L6.672,17.444C5.211,17.333 4.312,16.889 3.75,16.333C2.177,14.778 2.177,12.333 3.638,10.778C4.425,10 5.323,9.667 6.447,9.667C7.121,9.667 8.133,9.778 9.144,10.778C9.593,11.222 10.829,12.111 11.279,12.556L11.391,12.556L13.076,10.889L13.076,10.778C12.29,10 11.054,9 10.38,8.444" style="fill:rgb(0,200,220);fill-rule:nonzero;"/>
        <path d="M22.178,5.667C20.942,2.333 17.683,0 13.975,0C9.593,0 6.11,3.222 5.436,7.222C5.773,7.222 6.11,7.111 6.559,7.111C7.009,7.111 7.571,7.222 8.02,7.222C8.582,4.444 11.054,2.444 13.975,2.444C16.447,2.444 18.582,3.889 19.594,6C19.594,6 19.706,6.111 19.706,6C20.492,5.889 21.391,5.667 22.178,5.667C22.178,5.778 22.178,5.778 22.178,5.667" style="fill:rgb(0,110,255);fill-rule:nonzero;"/>
    </g>
</svg>
