<?xml version="1.0" encoding="UTF-8" standalone="no"?>
<!DOCTYPE svg PUBLIC "-//W3C//DTD SVG 1.1//EN" "http://www.w3.org/Graphics/SVG/1.1/DTD/svg11.dtd">
<svg width="100%" height="100%" viewBox="0 0 1024 1024" version="1.1" xmlns="http://www.w3.org/2000/svg"
    xml:space="preserve" style="fill-rule:evenodd;clip-rule:evenodd;stroke-linejoin:round;stroke-miterlimit:2;">
    <g transform="matrix(2.64886,0,0,2.64886,85.5,247.785)">
        <path d="M57.722,152.911C51.139,151.392 46.076,145.823 46.076,138.734L46.076,60.759C46.582,53.671 51.139,48.101 57.722,46.582L130.127,30.886L137.722,0L53.671,0C23.797,0 0,23.797 0,53.165L0,145.316C0,174.684 24.304,198.987 53.671,198.987L137.722,198.987L130.127,168.101L57.722,152.911Z" style="fill:rgb(255,106,0);fill-rule:nonzero;"/>
        <path d="M268.354,0L183.797,0L191.392,30.886L263.797,46.582C270.38,48.101 275.443,53.671 275.443,60.759L275.443,138.734C274.937,145.823 270.38,151.392 263.797,152.911L191.392,168.608L183.797,199.494L268.354,199.494C297.722,199.494 322.025,175.696 322.025,145.823L322.025,53.165C321.519,23.797 297.722,0 268.354,0Z" style="fill:rgb(255,106,0);fill-rule:nonzero;"/>
        <rect x="130.127" y="95.696" width="61.772" height="7.595" style="fill:rgb(255,106,0);fill-rule:nonzero;"/>
    </g>
</svg>
