<?xml version="1.0" encoding="UTF-8" standalone="no"?>
<!DOCTYPE svg PUBLIC "-//W3C//DTD SVG 1.1//EN" "http://www.w3.org/Graphics/SVG/1.1/DTD/svg11.dtd">
<svg width="100%" height="100%" viewBox="0 0 1024 1024" version="1.1" xmlns="http://www.w3.org/2000/svg"
    xml:space="preserve" style="fill-rule:evenodd;clip-rule:evenodd;stroke-linejoin:round;stroke-miterlimit:2;">
    <g transform="matrix(2.5,0,0,2.5,-154.75,-123.381)">
        <g transform="matrix(1,0,0,1,-266,177)">
            <path d="M674.9,91.7L632,67.1L624.6,63.9L449.1,65.1L449.1,154.25L674.9,154.25L674.9,91.7Z" style="fill:white;fill-rule:nonzero;"/>
        </g>
        <g transform="matrix(1,0,0,1,-266,177)">
            <path d="M596.8,146C598.9,138.8 598.1,132.2 594.6,127.3C591.4,122.8 586,120.2 579.5,119.9L456.4,118.3C455.64,118.304 454.927,117.929 454.5,117.3C454.097,116.641 453.988,115.843 454.2,115.1C454.655,113.866 455.79,113.006 457.1,112.9L581.3,111.3C596,110.6 612,98.7 617.6,84.1L624.7,65.6C625.012,64.84 625.081,64.001 624.9,63.2C616.656,26.393 583.704,0.005 545.985,0.005C511.419,0.005 480.502,22.166 469.4,54.9C463.105,50.17 455.439,47.611 447.565,47.611C429.002,47.611 413.27,61.831 411.4,80.3C410.987,84.554 411.291,88.847 412.3,93C384.499,93.786 362.067,116.888 362.1,144.7C362.117,147.208 362.284,149.712 362.6,152.2C362.776,153.389 363.798,154.284 365,154.3L592.2,154.3C593.538,154.274 594.715,153.382 595.1,152.1L596.8,146Z" style="fill:rgb(243,128,32);fill-rule:nonzero;"/>
        </g>
        <g transform="matrix(1,0,0,1,-266,177)">
            <path d="M636,66.9C634.9,66.9 633.7,66.9 632.6,67C631.769,67.045 631.049,67.605 630.8,68.4L626,85.1C623.9,92.3 624.7,98.9 628.2,103.8C631.4,108.3 636.8,110.9 643.3,111.2L669.5,112.8C670.26,112.796 670.973,113.171 671.4,113.8C671.796,114.461 671.905,115.257 671.7,116C671.245,117.234 670.11,118.094 668.8,118.2L641.5,119.8C626.7,120.5 610.8,132.4 605.2,147L603.2,152.1C603.125,152.278 603.086,152.469 603.086,152.662C603.086,153.452 603.736,154.102 604.526,154.102C604.551,154.102 604.575,154.101 604.6,154.1L698.4,154.1C699.512,154.114 700.502,153.371 700.8,152.3C702.449,146.374 703.289,140.251 703.3,134.1C703.207,97.233 672.867,66.938 636,66.9" style="fill:rgb(250,174,64);fill-rule:nonzero;"/>
        </g>
    </g>
</svg>
