<?xml version="1.0" encoding="UTF-8" standalone="no"?>
<!DOCTYPE svg PUBLIC "-//W3C//DTD SVG 1.1//EN" "http://www.w3.org/Graphics/SVG/1.1/DTD/svg11.dtd">
<svg width="100%" height="100%" viewBox="0 0 1024 1024" version="1.1" xmlns="http://www.w3.org/2000/svg"
    xml:space="preserve" style="fill-rule:evenodd;clip-rule:evenodd;stroke-linejoin:round;stroke-miterlimit:2;">
    <g id="Meta" transform="matrix(18.5435,0,0,18.5435,-8982.26,-8996.17)">
        <g transform="matrix(1,0,0,1,488,488)">
            <path d="M47,29.36L44.807,31.023L42.62,29.5C42.62,29.34 42.62,29.17 42.61,29C42.61,28.84 42.61,28.67 42.6,28.5C42.46,24.56 41.46,20.34 39.46,17.25C37.92,14.88 35.95,13.75 33.75,13.75C31.44,13.75 29.56,15.13 27.48,18.13C27.42,18.22 27.35,18.31 27.29,18.41C27.25,18.46 27.22,18.51 27.18,18.57C27.08,18.72 26.98,18.87 26.88,19.03C25.98,20.43 25.04,22.06 24.02,23.86C23.93,24.03 23.83,24.2 23.74,24.37C23.71,24.41 23.68,24.46 23.66,24.5L23.45,24.87L22.21,27.06C19.3,32.21 18.56,33.39 17.11,35.32C14.56,38.71 12.38,40 9.51,40C6.11,40 3.95,38.53 2.62,36.31C1.53,34.51 1,32.14 1,29.44L5.97,29.61C5.97,31.37 6.35,32.71 6.86,33.53C7.52,34.59 8.49,35 9.5,35C10.79,35 11.99,34.73 14.27,31.57C16.1,29.04 18.26,25.5 19.71,23.27L21.08,21.18L21.37,20.72L21.67,20.27L22.17,19.5C22.93,18.34 23.75,17.11 24.63,15.93C24.73,15.79 24.83,15.65 24.94,15.51C25.04,15.37 25.15,15.23 25.25,15.1C26.15,13.95 27.1,12.88 28.12,12C29.97,10.39 31.96,9.5 33.97,9.5C37.34,9.5 40.55,11.45 43.01,15.11C45.52,18.85 46.83,23.51 46.98,28.36C46.99,28.52 46.99,28.69 46.99,28.86C47,29.03 47,29.19 47,29.36Z" style="fill:rgb(0,129,251);fill-rule:nonzero;"/>
        </g>
        <g transform="matrix(1,0,0,1,488,488)">
            <path d="M4.918,15.456C7.195,11.951 10.483,9.5 14.253,9.5C16.437,9.5 18.607,10.145 20.874,11.993C23.353,14.013 25.996,17.339 29.293,22.821L30.475,24.788C33.329,29.534 34.952,31.975 35.903,33.127C37.125,34.606 37.888,35 39,35C41.82,35 42.617,32.46 42.617,29.499L47,29.362C47,32.457 46.389,34.731 45.349,36.527C44.345,38.264 42.387,40 39.093,40C37.045,40 35.231,39.556 33.225,37.667C31.683,36.217 29.88,33.641 28.493,31.326L24.367,24.447C22.297,20.995 20.398,18.42 19.299,17.255C18.117,16.001 16.657,14.501 14.232,14.501C12.269,14.501 10.543,15.863 9.148,17.966L4.918,15.456Z" style="fill:url(#_Linear1);fill-rule:nonzero;"/>
        </g>
        <g transform="matrix(1,0,0,1,488,488)">
            <path d="M14.25,14.5C12.291,14.5 10.567,15.862 9.175,17.965C7.206,20.937 6,25.363 6,29.614C6,31.367 5.997,32.686 6.5,33.5L2.66,36.313C1.574,34.507 1,32.2 1,29.5C1,24.59 2.355,19.409 4.918,15.456C7.192,11.951 10.507,9.5 14.27,9.5L14.25,14.5Z" style="fill:url(#_Linear2);fill-rule:nonzero;"/>
        </g>
    </g>
    <defs>
        <linearGradient id="_Linear1" x1="0" y1="0" x2="1" y2="0" gradientUnits="userSpaceOnUse" gradientTransform="matrix(-28.771,3.52343e-15,-3.52343e-15,-28.771,42.304,24.75)"><stop offset="0" style="stop-color:rgb(0,129,251);stop-opacity:1"/><stop offset="1" style="stop-color:rgb(0,100,225);stop-opacity:1"/><stop offset="1" style="stop-color:rgb(0,100,225);stop-opacity:1"/></linearGradient>
        <linearGradient id="_Linear2" x1="0" y1="0" x2="1" y2="0" gradientUnits="userSpaceOnUse" gradientTransform="matrix(1.21595e-15,-19.858,19.858,1.21595e-15,7.635,32.87)"><stop offset="0" style="stop-color:rgb(0,129,251);stop-opacity:1"/><stop offset="1" style="stop-color:rgb(0,100,225);stop-opacity:1"/><stop offset="1" style="stop-color:rgb(0,100,225);stop-opacity:1"/></linearGradient>
    </defs>
</svg>
